<svg xmlns="http://www.w3.org/2000/svg" xmlns:xlink="http://www.w3.org/1999/xlink" version="1.1" x="0px" y="0px"
    viewBox="-25.6 -51.2 563.2 691.2" enable-background="new 0 0 512 512" xml:space="preserve">
    <g>
        <path
            d="M132.424,247.142h-22.135v12h18.355h69.939h4.69h18.363h54.735c15.445,0,28.012-12.566,28.012-28.013v-22.567   c10.314-1.233,18.341-10.021,18.341-20.661V159.4c0-11.482-9.342-20.823-20.822-20.823h-7.033   c-11.481,0-20.824,9.341-20.824,20.823v28.502c0,10.64,8.026,19.428,18.34,20.661v22.567c0,8.829-7.182,16.012-16.012,16.012   h-54.735h-22.13l-5.75-18.312h71.019V86.51H67.148v142.32h71.045L132.424,247.142z M286.046,159.4c0-4.865,3.958-8.823,8.823-8.823   h7.033c4.864,0,8.822,3.958,8.822,8.823v8.25h-24.68L286.046,159.4L286.046,159.4z M286.046,187.902v-8.251h24.68v8.251   c0,4.865-3.958,8.823-8.822,8.823h-7.033C290.004,196.726,286.046,192.767,286.046,187.902z M145.005,247.142l5.77-18.312h30.405   l5.75,18.312H145.005z M79.148,98.51h173.628v91.9H79.148V98.51z M79.148,216.831v-14.42h173.628v14.42H189.99h-48.017H79.148z" />
        <path
            d="M378.928,258.369h20.961h12h32.963V108.704h-32.963h-12h-20.961h-12h-32.963v149.665h32.963H378.928z M411.889,120.704   h20.963v94.307h-20.963V120.704z M411.889,227.011h20.963v19.358h-20.963V227.011z M378.928,120.704h20.961v94.307h-20.961V120.704   z M378.928,227.011h20.961v19.358h-20.961V227.011z M345.965,120.704h20.963v94.307h-20.963V120.704z M345.965,227.011h20.963   v19.358h-20.963V227.011z" />
        <rect x="192.363" y="115.66" width="39.842" height="12" />
        <rect x="192.363" y="134.56" width="39.842" height="12" />
        <rect x="192.363" y="153.476" width="39.842" height="12" />
        <path
            d="M151.563,107.024c-18.492-8.448-40.409-0.279-48.858,18.212c-4.093,8.957-4.453,18.972-1.013,28.2   c3.438,9.229,10.266,16.565,19.224,20.658c4.953,2.263,10.149,3.333,15.268,3.333c13.996,0,27.404-8.006,33.59-21.544   c4.094-8.957,4.453-18.972,1.014-28.2C167.348,118.454,160.521,111.118,151.563,107.024z M113.619,130.223   c2.932-6.414,8.268-10.975,14.452-13.129l1.814,19.863l-18.001,8.654C110.804,140.454,111.389,135.105,113.619,130.223z    M125.904,163.18c-3.469-1.585-6.441-3.909-8.802-6.762l17.073-8.209l10.63,15.682C138.865,166.073,132.099,166.011,125.904,163.18   z M158.86,150.896c-1.074,2.349-2.47,4.45-4.111,6.276l-12.675-18.698l-2.054-22.494c2.215,0.339,4.419,0.983,6.555,1.959   c6.044,2.761,10.647,7.71,12.969,13.935C161.863,138.098,161.621,144.854,158.86,150.896z" />
        <path
            d="M47.451,271.755v40.815h35.486v112.92h12V312.57h322.125v112.92h12V312.57h35.485v-40.815H47.451z M452.549,300.57H59.451   v-16.815h393.098V300.57L452.549,300.57z" />
    </g>
</svg>