<svg xmlns="http://www.w3.org/2000/svg" xmlns:xlink="http://www.w3.org/1999/xlink" version="1.1" x="0px" y="0px"
    viewBox="0 0 100 125" enable-background="new 0 0 100 100" xml:space="preserve">
    <path
        d="M88.537,11.463c-0.585-0.586-1.536-0.586-2.121,0l-9.928,9.928c-5.397-4.863-12.209-7.297-19.02-7.297  c-7.278,0-14.555,2.775-20.107,8.328l-4.642,4.642l6.276,6.275l-5.657,5.657l-6.275-6.275l-4.641,4.641  C11.674,48.11,11.33,65.325,21.391,76.488l-9.928,9.928c-0.586,0.585-0.586,1.535,0,2.121c0.585,0.586,1.536,0.586,2.121,0  l9.928-9.928c5.396,4.863,12.208,7.297,19.019,7.297c7.279,0,14.555-2.775,20.108-8.328l4.641-4.641l-6.364-6.364l5.657-5.657l0,0  l6.364,6.363l4.641-4.641C88.326,51.89,88.67,34.675,78.609,23.512l9.928-9.928C89.123,12.998,89.123,12.048,88.537,11.463z   M40.409,46.067l5.657-5.657l0,0l13.435,13.435l0,0l-5.657,5.658L40.409,46.067z M41.117,35.46l2.829,2.829l0,0l-5.657,5.657  l-2.829-2.829L41.117,35.46z M60.518,75.457c-4.804,4.804-11.192,7.449-17.987,7.449s-13.183-2.646-17.987-7.45  s-7.45-11.192-7.45-17.987c0-6.794,2.646-13.182,7.449-17.986l2.52-2.52l35.974,35.975L60.518,75.457z M64.452,58.795l-5.657,5.657  l-2.829-2.828l5.657-5.658l0,0L64.452,58.795L64.452,58.795z M75.457,60.518l-2.52,2.52L36.962,27.063l2.52-2.521  c4.804-4.804,11.192-7.449,17.986-7.449c6.795,0,13.183,2.646,17.987,7.45C85.374,34.462,85.374,50.6,75.457,60.518z" />
</svg>