<svg version="1.1" id="Layer_1" xmlns="http://www.w3.org/2000/svg" xmlns:xlink="http://www.w3.org/1999/xlink" x="0px" y="0px"
	 width="100%" viewBox="0 0 140 140" xml:space="preserve">
<path fill="#FFFFFF" opacity="1.000000" stroke="none" 
	d="
M77.592201,72.900681 
	C71.662636,76.237236 64.440254,75.590408 60.111233,71.611717 
	C56.509544,68.301498 54.955265,62.026604 56.692131,57.808205 
	C59.778091,50.313198 63.909050,47.386864 71.380203,48.063232 
	C76.387741,48.516575 80.636902,51.125160 82.194778,55.928505 
	C83.734390,60.675522 84.461250,65.888397 80.340889,70.163513 
	C79.533958,71.000755 78.710815,71.822365 77.592201,72.900681 
M72.928497,66.591019 
	C73.943390,64.689964 75.863258,62.749199 75.781937,60.896255 
	C75.620148,57.209999 71.418320,54.959019 67.772705,56.091564 
	C63.793045,57.327881 63.573715,60.671047 64.092278,63.927639 
	C64.567863,66.914322 68.758224,68.312042 72.928497,66.591019 
z"/>
<path fill="#FFFFFF" opacity="1.000000" stroke="none" 
	d="
M104.612595,125.990906 
	C96.069672,128.090134 88.320854,124.217087 86.250206,116.528770 
	C84.686935,110.724358 87.134453,102.341492 96.979324,99.465996 
	C103.473717,97.569122 112.378601,103.591217 113.024132,110.314041 
	C113.694954,117.300240 111.671082,122.794456 104.612595,125.990906 
M103.265045,108.028915 
	C99.960823,106.272591 96.591835,106.263985 94.965843,109.843109 
	C94.104073,111.740044 94.482895,114.900116 95.533569,116.813522 
	C97.433281,120.273155 100.955605,119.644608 103.535820,117.675179 
	C106.975746,115.049530 106.729958,111.660164 103.265045,108.028915 
z"/>
<path fill="#FFFFFF" opacity="1.000000" stroke="none" 
	d="
M95.380661,32.011230 
	C103.537338,32.023300 108.082893,34.583626 110.305229,40.902847 
	C112.234703,46.389332 111.058380,51.459137 106.834084,55.671944 
	C103.370575,59.126034 95.800148,60.516369 90.947861,57.870674 
	C85.604080,54.956993 83.421974,50.101559 83.953194,43.915627 
	C84.399429,38.719212 87.419182,34.729465 92.768150,32.981903 
	C93.522408,32.735481 94.229546,32.344826 95.380661,32.011230 
M92.403305,48.924107 
	C94.161850,49.874275 95.952019,51.671478 97.672684,51.607216 
	C101.918098,51.448666 103.835754,48.121666 102.993225,43.560978 
	C102.431160,40.518490 99.066772,38.892471 95.615829,39.995461 
	C91.893936,41.185055 90.529785,44.321941 92.403305,48.924107 
z"/>
<path fill="#FFFFFF" opacity="1.000000" stroke="none" 
	d="
M35.889374,65.597168 
	C42.381519,62.067444 51.326561,64.326744 54.747505,71.555321 
	C58.081112,78.599358 54.918121,87.142746 48.583328,89.796822 
	C41.562122,92.738480 34.034531,90.999779 30.006754,83.944710 
	C26.494349,77.792366 29.059242,69.822800 35.889374,65.597168 
M37.366051,80.909706 
	C40.063915,84.491570 43.812180,84.466278 46.302128,81.711540 
	C47.721363,80.141396 47.581814,76.182114 46.673786,73.878143 
	C46.176567,72.616531 42.342499,71.615715 40.503040,72.158287 
	C36.747276,73.266083 34.428181,75.970520 37.366051,80.909706 
z"/>
<path fill="#FFFFFF" opacity="1.000000" stroke="none" 
	d="
M89.749550,89.249855 
	C86.020805,84.215317 84.917267,79.127396 87.167381,73.502617 
	C89.314026,68.136482 96.052567,64.858696 102.718414,66.012848 
	C108.329926,66.984451 112.768845,72.323540 113.049812,77.887016 
	C113.325401,83.344048 112.081169,87.975723 107.181610,90.960030 
	C101.160675,94.627365 95.473930,93.270126 89.749550,89.249855 
M97.091843,84.617149 
	C99.259682,84.373253 102.014412,84.868690 103.463036,83.718773 
	C105.863686,81.813118 107.610977,78.969742 104.394676,75.824097 
	C101.586090,73.077187 98.816872,71.963753 95.542183,74.940224 
	C92.977470,77.271370 93.350227,80.851791 97.091843,84.617149 
z"/>
<path fill="#FFFFFF" opacity="1.000000" stroke="none" 
	d="
M64.323761,84.185822 
	C69.993050,80.903053 77.444908,81.373970 81.454803,84.980286 
	C85.816025,88.902565 87.296745,94.788651 84.762657,100.446098 
	C82.742523,104.956154 78.586082,109.681023 70.829163,109.031090 
	C66.331047,108.654198 60.192722,104.159897 59.019108,100.064133 
	C57.287273,94.020233 59.152534,88.202217 64.323761,84.185822 
M69.956902,100.978806 
	C70.618073,100.985832 71.431541,101.246109 71.914024,100.955978 
	C73.988564,99.708481 76.957039,98.687721 77.683739,96.833427 
	C78.335243,95.171013 77.103378,91.633034 75.562027,90.558884 
	C73.920677,89.415039 70.588005,89.409874 68.618065,90.295769 
	C64.598396,92.103416 65.013184,96.482094 69.956902,100.978806 
z"/>
<path fill="#FFFFFF" opacity="1.000000" stroke="none" 
	d="
M48.796158,32.457493 
	C46.415134,28.386892 43.890736,24.808435 42.176128,20.876823 
	C41.623829,19.610392 42.781017,16.961535 43.987209,15.834570 
	C44.587761,15.273466 47.310722,16.392618 48.616062,17.365547 
	C49.648174,18.134825 50.144405,19.786282 50.599819,21.139782 
	C53.715961,30.401047 62.267513,30.923885 69.764099,32.902542 
	C72.650711,33.664440 74.577919,34.912914 73.853966,37.785107 
	C73.234192,40.243996 71.698029,41.723766 68.318039,40.271473 
	C64.398994,38.587555 59.998924,38.023148 55.498016,36.895176 
	C54.320248,41.396717 53.465469,45.950375 51.834717,50.206726 
	C51.255077,51.719620 48.789852,52.510078 47.185387,53.630325 
	C46.386909,51.940346 44.680256,50.084270 44.953491,48.590309 
	C45.927540,43.264542 47.574646,38.061871 48.796158,32.457493 
z"/>
</svg>